<svg width="40" height="40" viewBox="0 0 40 40" fill="none" xmlns="http://www.w3.org/2000/svg">
<path d="M23.9043 20.353C23.1574 20.1072 22.0822 20.16 20.6787 20.16H15.04V27.52H21.0701C22.0122 27.52 22.6739 27.4192 23.055 27.3488C23.7267 27.2285 24.2883 26.9955 24.7395 26.7146C25.1904 26.4342 25.5613 26.009 25.8525 25.4726C26.143 24.9363 26.2886 24.3088 26.2886 23.607C26.2886 22.7853 26.0781 22.1542 25.6566 21.5475C25.2355 20.9408 24.6515 20.5987 23.9043 20.353ZM23.1302 16.9878C23.8717 16.7677 24.4307 16.383 24.8067 15.872C25.183 15.3606 25.3709 14.7101 25.3709 13.9379C25.3709 13.2064 25.1952 12.5574 24.8442 12.0006C24.4931 11.4438 23.9923 11.2285 23.3405 11.0227C22.6886 10.8176 21.5709 10.88 19.9869 10.88H15.04V17.28H20.3478C21.6413 17.28 22.5683 17.1584 23.1302 16.9878ZM40 5.32C40 2.38176 37.6182 0 34.68 0H5.32C2.38176 0 0 2.38176 0 5.32V34.68C0 37.6182 2.38176 40 5.32 40H34.68C37.6182 40 40 37.6182 40 34.68V5.32ZM28.657 26.4784C28.2211 27.3658 27.6819 28.0499 27.0403 28.5312C26.3984 29.0125 25.5936 29.4208 24.6262 29.6666C23.6592 29.9126 22.4733 30.08 21.0701 30.08H12.16V8H20.9344C22.6189 8 23.9696 8.19488 24.9872 8.64064C26.0051 9.08704 26.8019 9.75968 27.3789 10.687C27.9552 11.6144 28.2435 12.5773 28.2435 13.5898C28.2435 14.5322 27.9875 15.4163 27.4765 16.2483C26.9651 17.081 26.193 17.7504 25.1606 18.2618C26.4938 18.6528 27.519 19.319 28.2358 20.2611C28.9526 21.2035 29.311 22.3162 29.311 23.5994C29.311 24.632 29.0931 25.5914 28.657 26.4784Z" fill="#CDEE2B"/>
</svg>
