<svg width="20" height="20" viewBox="0 0 20 20" fill="none" xmlns="http://www.w3.org/2000/svg">
<g id="ithub">
<path id="Vector" d="M6.68952 16.0637C6.68952 16.1462 6.59677 16.2122 6.47984 16.2122C6.34677 16.2246 6.25403 16.1586 6.25403 16.0637C6.25403 15.9812 6.34677 15.9152 6.46371 15.9152C6.58468 15.9028 6.68952 15.9688 6.68952 16.0637ZM5.43548 15.8781C5.40726 15.9606 5.4879 16.0555 5.60887 16.0802C5.71371 16.1215 5.83468 16.0802 5.85887 15.9977C5.88306 15.9152 5.80645 15.8203 5.68548 15.7832C5.58065 15.7543 5.46371 15.7956 5.43548 15.8781ZM7.21774 15.8079C7.10081 15.8368 7.02016 15.9152 7.03226 16.0101C7.04435 16.0926 7.14919 16.1462 7.27016 16.1173C7.3871 16.0885 7.46774 16.0101 7.45564 15.9276C7.44355 15.8492 7.33468 15.7956 7.21774 15.8079ZM9.87097 0C4.27823 0 0 4.34388 0 10.0656C0 14.6405 2.81452 18.5554 6.83468 19.9332C7.35081 20.0281 7.53226 19.7022 7.53226 19.434C7.53226 19.1783 7.52016 17.7674 7.52016 16.9011C7.52016 16.9011 4.69758 17.5199 4.10484 15.6718C4.10484 15.6718 3.64516 14.4714 2.98387 14.162C2.98387 14.162 2.06048 13.5143 3.04839 13.5267C3.04839 13.5267 4.05242 13.6092 4.60484 14.591C5.4879 16.1833 6.96774 15.7254 7.54435 15.4532C7.6371 14.7931 7.89919 14.3352 8.18952 14.063C5.93548 13.8072 3.66129 13.4731 3.66129 9.50457C3.66129 8.37013 3.96774 7.80084 4.6129 7.0748C4.50806 6.80666 4.16532 5.70109 4.71774 4.27376C5.56048 4.00561 7.5 5.38757 7.5 5.38757C8.30645 5.15656 9.17339 5.03693 10.0323 5.03693C10.8911 5.03693 11.7581 5.15656 12.5645 5.38757C12.5645 5.38757 14.504 4.00149 15.3468 4.27376C15.8992 5.70522 15.5565 6.80666 15.4516 7.0748C16.0968 7.80497 16.4919 8.37425 16.4919 9.50457C16.4919 13.4854 14.1169 13.8031 11.8629 14.063C12.2339 14.3889 12.5484 15.0076 12.5484 15.9771C12.5484 17.3673 12.5363 19.0875 12.5363 19.4258C12.5363 19.6939 12.7218 20.0198 13.2339 19.9249C17.2661 18.5554 20 14.6405 20 10.0656C20 4.34388 15.4637 0 9.87097 0ZM3.91935 14.228C3.86694 14.2692 3.87903 14.3641 3.94758 14.4425C4.0121 14.5085 4.10484 14.5374 4.15726 14.4837C4.20968 14.4425 4.19758 14.3476 4.12903 14.2692C4.06452 14.2032 3.97177 14.1743 3.91935 14.228ZM3.48387 13.8938C3.45565 13.9475 3.49597 14.0135 3.57661 14.0547C3.64113 14.096 3.72177 14.0836 3.75 14.0258C3.77823 13.9722 3.7379 13.9062 3.65726 13.865C3.57661 13.8402 3.5121 13.8526 3.48387 13.8938ZM4.79032 15.3624C4.72581 15.416 4.75 15.5398 4.84274 15.6182C4.93548 15.7131 5.05242 15.7254 5.10484 15.6594C5.15726 15.6058 5.13306 15.4821 5.05242 15.4037C4.96371 15.3088 4.84274 15.2964 4.79032 15.3624ZM4.33065 14.756C4.26613 14.7973 4.26613 14.9045 4.33065 14.9994C4.39516 15.0943 4.50403 15.1355 4.55645 15.0943C4.62097 15.0406 4.62097 14.9334 4.55645 14.8385C4.5 14.7436 4.39516 14.7024 4.33065 14.756Z" fill="white"/>
</g>
</svg>
