<svg width="54" height="40" viewBox="0 0 54 40" fill="none" xmlns="http://www.w3.org/2000/svg">
<path fill-rule="evenodd" clip-rule="evenodd" d="M0 16.6795C0 16.979 0.0881771 17.1766 0.13759 17.3687C0.459628 18.6181 1.15184 19.6903 1.97312 20.6684C3.14285 22.0621 4.57541 23.1842 6.0429 24.2393C7.31571 25.1543 8.61451 26.0489 9.89244 26.957C10.1118 27.1129 10.3193 27.2923 10.5574 27.4835C10.3525 27.5943 10.1821 27.6918 10.0049 27.7817C8.31846 28.6371 6.69592 29.596 5.20032 30.7576C4.29895 31.4579 3.4274 32.2021 2.81187 33.1746C1.82147 34.7388 1.4709 36.4052 2.20911 38.1845C2.42466 38.7042 2.75351 39.1532 3.2174 39.485C3.36777 39.5923 3.53645 39.6988 3.71238 39.7406C4.16306 39.8466 4.62227 39.9161 5.07849 40L6.37047 39.9991C7.7992 39.8718 9.0997 39.3823 10.275 38.5713C12.1118 37.3036 13.3492 35.6039 13.8813 33.4225C14.2681 31.837 14.2838 30.2498 13.828 28.6716C13.7859 28.5251 13.7326 28.3815 13.6772 28.2397C13.6219 28.0978 13.5567 27.9598 13.48 27.783L16.409 26.0987L16.4529 26.1362C16.3997 26.3104 16.343 26.4842 16.2949 26.6601C15.9468 27.9312 15.7155 29.2245 15.7986 30.5438C15.8872 31.9495 16.2795 33.2653 17.1025 34.4397C17.7679 35.3897 19.3534 35.425 20.0605 34.4717C20.3114 34.133 20.5546 33.779 20.7374 33.4012C21.2149 32.4151 21.657 31.4115 22.1133 30.4147L22.1929 30.2324C22.1601 30.7044 22.1218 31.1188 22.1043 31.5337C22.0771 32.1816 22.115 32.8257 22.3365 33.4421C22.526 33.9695 22.8485 34.3635 23.4525 34.4329C23.8657 34.4802 24.195 34.2911 24.4987 34.0512C24.9733 33.6768 25.3588 33.2142 25.645 32.6885C26.4548 31.2015 27.2863 29.7233 28.0203 28.1988C28.8143 26.5498 29.5086 24.8527 30.246 23.1756L30.3678 22.8783C30.5421 23.5629 30.6635 24.2333 30.8871 24.8681C31.1469 25.6046 31.4686 26.3236 31.8187 27.0226C31.9844 27.3528 31.9652 27.567 31.7356 27.8439C30.7746 29.0026 29.8302 30.1753 28.885 31.3467C28.6759 31.6053 28.4676 31.8685 28.2933 32.151C28.1881 32.3226 28.1183 32.5318 28.0889 32.732C28.0322 33.1145 28.2686 33.4834 28.678 33.5716C29.052 33.6521 29.4503 33.6819 29.8315 33.6538C31.1508 33.5567 32.3486 33.0937 33.4076 32.309C34.7797 31.2926 35.2201 29.9056 34.8879 28.2618C34.798 27.8158 34.6391 27.3822 34.4845 26.9524C34.415 26.7585 34.4103 26.6226 34.5369 26.442C35.6337 24.8757 36.5709 23.214 37.4424 21.5139C37.4769 21.447 37.5123 21.3802 37.5728 21.3086C37.8552 22.7782 38.2803 24.1946 39.042 25.4798C38.6535 25.8542 38.2688 26.1937 37.9208 26.5677C37.1545 27.3915 36.49 28.2861 36.1432 29.377C35.9941 29.8473 35.8795 30.3252 35.946 30.8275C36.0491 31.6074 36.688 32.1143 37.4552 31.9367C39.0969 31.5567 40.5142 30.7832 41.5497 29.4128C42.2466 28.4901 42.3101 27.461 42.0183 26.3828C41.9382 26.0898 41.8432 25.8014 41.741 25.4653C42.1461 25.3396 42.5409 25.1888 42.9495 25.0955C45.0704 24.6116 47.1683 24.696 49.2122 25.4619C50.4053 25.9091 51.3693 26.6576 51.941 27.835C52.6391 29.2743 52.2532 30.64 50.8965 31.5499C50.77 31.6347 50.6251 31.7016 50.5203 31.8076C50.456 31.8728 50.4172 32.0031 50.433 32.093C50.442 32.1454 50.5804 32.211 50.6601 32.2102C51.1061 32.2068 51.4677 31.9729 51.8149 31.7327C52.6847 31.1308 53.3194 30.321 53.4562 29.2548L53.483 29.1747L53.4502 28.4803C53.437 28.4403 53.46 28.4007 53.457 28.3704C53.2721 26.8177 52.4428 25.6135 51.2364 24.6695C49.8392 23.5769 48.1894 23.1271 46.4446 23.056C45.0227 22.998 43.6251 23.2093 42.2849 23.6962C41.9028 23.8346 41.5241 23.9986 41.1399 24.1533C41.0884 24.06 41.033 23.9705 40.9874 23.8781C40.593 23.0704 40.115 22.2986 40.0094 21.3725C39.9344 20.7148 39.8424 20.0579 39.9987 19.4075C40.1491 18.7817 40.345 18.1666 40.5295 17.5494C40.6245 17.2316 40.5576 17.0535 40.2543 16.9104C40.1487 16.8606 40.0337 16.8171 39.9195 16.8005C39.174 16.6923 38.4388 16.7541 37.7168 16.9641C37.4612 17.0386 37.2755 17.1817 37.2188 17.4646C37.1864 17.6269 37.1204 17.7824 37.0744 17.9425C36.8857 18.6083 36.7519 19.2869 36.4469 19.9212C35.6827 21.5122 34.8103 23.0432 33.9175 24.5631C33.8208 24.7271 33.719 24.8881 33.5972 25.087C33.2836 24.431 32.9492 23.8423 32.8479 23.1522C32.7333 22.3718 32.643 21.5927 32.8372 20.8183C32.9816 20.2407 33.1703 19.6737 33.3441 19.1037C33.4263 18.8328 33.3884 18.6905 33.1431 18.5478C33.0191 18.4759 32.879 18.412 32.7392 18.3911C31.9661 18.2765 31.2044 18.3366 30.4586 18.5777C30.2273 18.6526 30.1059 18.8022 30.0351 19.0407C29.8273 19.7444 29.6501 20.4652 29.3583 21.1344C28.1766 23.8436 26.9609 26.5387 25.7464 29.2335C25.493 29.7962 25.1961 30.3393 24.9102 30.8871C24.8378 31.026 24.7322 31.1482 24.6419 31.2786C24.5694 31.1929 24.5413 31.1342 24.5418 31.0754C24.5439 30.7291 24.5026 30.3725 24.5686 30.0377C24.7684 29.0247 24.9984 28.0173 25.2408 27.0137C25.441 26.1847 25.674 25.3635 25.8959 24.5401C25.9705 24.2644 25.9718 24.0067 25.7737 23.775C25.441 23.3869 24.7458 23.3017 24.3335 23.6008L24.1511 23.7039L24.1865 23.4099C24.2734 22.7799 24.2909 22.152 24.1179 21.5314C23.9024 20.7578 23.3503 20.3127 22.5478 20.3374C22.1738 20.3489 21.781 20.4128 21.4347 20.5491C19.9783 21.1199 18.8584 22.1307 17.905 23.3469C17.8186 23.4572 17.7044 23.5578 17.5826 23.6255C16.3502 24.3087 15.1141 24.9835 13.8783 25.6608L12.5028 26.4143C12.1339 26.0625 11.7987 25.6974 11.4183 25.3877C10.2567 24.4404 9.07627 23.5164 7.90654 22.5797C6.86972 21.7495 5.86526 20.8848 5.0968 19.7853C4.52514 18.9674 4.15667 18.0725 4.12132 17.0612C4.07659 15.7726 4.44208 14.5952 5.09808 13.4992C5.93725 12.0969 7.08185 10.9714 8.34019 9.95208C9.67136 8.87436 11.1112 7.95936 12.6034 7.12402C14.6911 5.95557 16.8384 4.9213 19.1408 4.23846C21.5016 3.53816 23.8968 3.13731 26.3675 3.41675C27.3387 3.52666 28.2818 3.74901 29.1478 4.22398C29.8111 4.58734 30.3551 5.06315 30.6081 5.8069C30.8577 6.53873 30.85 7.28036 30.6771 8.02368C30.3257 9.52908 29.5014 10.77 28.4641 11.8788C26.7628 13.6964 24.6874 14.9339 22.351 15.7513C21.0027 16.2229 19.6158 16.5189 18.1913 16.6386C17.0288 16.7362 15.8906 16.6331 14.7899 16.2288C14.061 15.9609 13.4263 15.5511 12.916 14.9564C12.8249 14.8499 12.7081 14.7345 12.5382 14.8342C12.3716 14.9322 12.3422 15.0906 12.398 15.2512C12.4913 15.5179 12.5774 15.7956 12.7226 16.0342C13.0877 16.6327 13.6202 17.0667 14.2063 17.439C15.3322 18.1551 16.5905 18.3958 17.8953 18.4516C19.8752 18.5372 21.807 18.2416 23.7115 17.7104C26.4305 16.9521 28.7947 15.6129 30.6907 13.5C32.2694 11.7408 33.3969 9.75528 33.6385 7.35788C33.7565 6.18773 33.6308 5.04143 33.083 3.97393C32.4888 2.81741 31.5439 1.95736 30.4143 1.36483C28.7691 0.502226 26.9937 0 25.1611 0H23.3252C21.1058 0 18.9602 0.635982 16.8746 1.39465C15.2959 1.96929 13.748 2.64744 12.2451 3.39801C8.97233 5.03333 5.92447 7.00518 3.42101 9.71651C2.17376 11.0673 1.11776 12.5578 0.510319 14.3128C0.332687 14.8265 0.164001 15.3773 0.0370599 15.9085M11.8958 31.2492C11.754 33.1486 10.8931 34.6885 9.48606 35.9358C8.6946 36.6369 7.78684 37.1362 6.72957 37.3117C6.34619 37.3751 5.95387 37.3905 5.58199 37.2316C5.05165 37.005 4.9328 36.5343 4.92258 36.0329C4.90682 35.2338 5.18668 34.5113 5.57049 33.8238C6.07144 32.9275 6.80582 32.2443 7.59004 31.6061C8.82537 30.6004 10.1655 29.7493 11.538 28.9459L11.6415 28.9033C11.8536 29.6871 11.9546 30.4611 11.8958 31.2492ZM22.6125 22.9942C22.5124 23.6008 22.3872 24.2078 22.21 24.7956C21.5974 26.8305 20.8106 28.8024 19.96 30.7478C19.8028 31.1077 19.574 31.4362 19.3751 31.7774C19.3444 31.8302 19.2988 31.8758 19.2545 31.9197C19.0083 32.1629 18.7749 32.1501 18.6505 31.8319C18.5057 31.4622 18.4166 31.0664 18.34 30.675C18.2884 30.4121 18.3008 30.1361 18.2846 29.8669C18.3012 27.9525 18.8852 26.2129 19.876 24.5933C20.2846 23.9254 20.7293 23.289 21.4087 22.8664C21.6174 22.7365 21.8517 22.6321 22.0881 22.5657C22.4502 22.4638 22.6726 22.6313 22.6125 22.9942ZM29.924 32.3094L32.5518 29.2411C32.6613 30.3806 30.7244 32.6553 29.924 32.3094ZM38.317 30.2447C38.1312 30.3512 37.9289 30.4279 37.7385 30.5263C37.5643 30.6166 37.5068 30.5254 37.5017 30.3755C37.4982 30.2737 37.5132 30.1672 37.5413 30.0684C37.8961 28.8169 38.5491 27.7485 39.5208 26.8795L39.5889 26.8446C40.0511 28.1374 39.5169 29.5572 38.317 30.2447Z" fill="#CDEE2B"/>
</svg>
